<mxfile host="app.diagrams.net" modified="2022-06-07T13:03:18.484Z" agent="5.0 (Windows NT 10.0; Win64; x64) AppleWebKit/537.36 (KHTML, like Gecko) Chrome/102.0.5005.63 Safari/537.36 Edg/102.0.1245.33" etag="mOyTnMK5KKCWYNlOl6ES" version="19.0.0" type="github">
  <diagram id="KPys3-_w2SVzWVfqMI01" name="Page-1">
    <mxGraphModel dx="2224" dy="982" grid="0" gridSize="10" guides="1" tooltips="1" connect="1" arrows="1" fold="1" page="0" pageScale="1" pageWidth="1200" pageHeight="1920" math="0" shadow="0">
      <root>
        <mxCell id="0" />
        <mxCell id="1" parent="0" />
        <mxCell id="WZVJP4LRijjCwG3HYN7H-1" value="&lt;font style=&quot;font-size: 19px;&quot;&gt;Block&lt;/font&gt;" style="rounded=0;whiteSpace=wrap;html=1;" vertex="1" parent="1">
          <mxGeometry x="200" y="274" width="143" height="35" as="geometry" />
        </mxCell>
        <mxCell id="WZVJP4LRijjCwG3HYN7H-2" value="&lt;font style=&quot;font-size: 19px;&quot;&gt;Block&lt;/font&gt;" style="rounded=0;whiteSpace=wrap;html=1;" vertex="1" parent="1">
          <mxGeometry x="200" y="309" width="143" height="35" as="geometry" />
        </mxCell>
        <mxCell id="WZVJP4LRijjCwG3HYN7H-3" value="&lt;font style=&quot;font-size: 19px;&quot;&gt;...&lt;/font&gt;" style="rounded=0;whiteSpace=wrap;html=1;" vertex="1" parent="1">
          <mxGeometry x="200" y="344" width="143" height="35" as="geometry" />
        </mxCell>
        <mxCell id="WZVJP4LRijjCwG3HYN7H-4" value="&lt;font style=&quot;font-size: 19px;&quot;&gt;...&lt;/font&gt;" style="rounded=0;whiteSpace=wrap;html=1;" vertex="1" parent="1">
          <mxGeometry x="200" y="379" width="143" height="35" as="geometry" />
        </mxCell>
        <mxCell id="WZVJP4LRijjCwG3HYN7H-19" style="edgeStyle=orthogonalEdgeStyle;rounded=0;orthogonalLoop=1;jettySize=auto;html=1;exitX=1;exitY=0.5;exitDx=0;exitDy=0;entryX=0;entryY=0.5;entryDx=0;entryDy=0;fontSize=19;" edge="1" parent="1" source="WZVJP4LRijjCwG3HYN7H-5" target="WZVJP4LRijjCwG3HYN7H-6">
          <mxGeometry relative="1" as="geometry" />
        </mxCell>
        <mxCell id="WZVJP4LRijjCwG3HYN7H-5" value="&lt;span style=&quot;font-size: 19px;&quot;&gt;Table&lt;/span&gt;" style="rounded=0;whiteSpace=wrap;html=1;" vertex="1" parent="1">
          <mxGeometry x="200" y="414" width="143" height="35" as="geometry" />
        </mxCell>
        <mxCell id="WZVJP4LRijjCwG3HYN7H-6" value="&lt;font style=&quot;font-size: 19px;&quot;&gt;Granules&lt;/font&gt;" style="rounded=0;whiteSpace=wrap;html=1;" vertex="1" parent="1">
          <mxGeometry x="439" y="274" width="143" height="35" as="geometry" />
        </mxCell>
        <mxCell id="WZVJP4LRijjCwG3HYN7H-7" value="&lt;font style=&quot;font-size: 19px;&quot;&gt;Granules&lt;/font&gt;" style="rounded=0;whiteSpace=wrap;html=1;" vertex="1" parent="1">
          <mxGeometry x="439" y="309" width="143" height="35" as="geometry" />
        </mxCell>
        <mxCell id="WZVJP4LRijjCwG3HYN7H-8" value="&lt;font style=&quot;font-size: 19px;&quot;&gt;...&lt;/font&gt;" style="rounded=0;whiteSpace=wrap;html=1;" vertex="1" parent="1">
          <mxGeometry x="439" y="344" width="143" height="35" as="geometry" />
        </mxCell>
        <mxCell id="WZVJP4LRijjCwG3HYN7H-9" value="&lt;font style=&quot;font-size: 19px;&quot;&gt;...&lt;/font&gt;" style="rounded=0;whiteSpace=wrap;html=1;" vertex="1" parent="1">
          <mxGeometry x="439" y="379" width="143" height="35" as="geometry" />
        </mxCell>
        <mxCell id="WZVJP4LRijjCwG3HYN7H-10" value="&lt;font style=&quot;font-size: 19px;&quot;&gt;Contiguous&lt;/font&gt;" style="rounded=0;whiteSpace=wrap;html=1;" vertex="1" parent="1">
          <mxGeometry x="439" y="414" width="143" height="35" as="geometry" />
        </mxCell>
        <mxCell id="WZVJP4LRijjCwG3HYN7H-15" value="" style="shape=curlyBracket;whiteSpace=wrap;html=1;rounded=1;flipH=1;fontSize=19;" vertex="1" parent="1">
          <mxGeometry x="585" y="274" width="15" height="35" as="geometry" />
        </mxCell>
        <mxCell id="WZVJP4LRijjCwG3HYN7H-16" value="" style="shape=curlyBracket;whiteSpace=wrap;html=1;rounded=1;flipH=1;fontSize=19;" vertex="1" parent="1">
          <mxGeometry x="585" y="414" width="15" height="35" as="geometry" />
        </mxCell>
        <mxCell id="WZVJP4LRijjCwG3HYN7H-17" value="" style="shape=curlyBracket;whiteSpace=wrap;html=1;rounded=1;flipH=0;fontSize=19;" vertex="1" parent="1">
          <mxGeometry x="182" y="414" width="15" height="35" as="geometry" />
        </mxCell>
        <mxCell id="WZVJP4LRijjCwG3HYN7H-18" value="" style="shape=curlyBracket;whiteSpace=wrap;html=1;rounded=1;flipH=0;fontSize=19;" vertex="1" parent="1">
          <mxGeometry x="182" y="274" width="15" height="35" as="geometry" />
        </mxCell>
        <mxCell id="WZVJP4LRijjCwG3HYN7H-20" value="&lt;font style=&quot;&quot;&gt;&lt;font style=&quot;font-size: 14px;&quot;&gt;Block descriptor indicates a GPI value for a region (1G to 512G)&lt;/font&gt;&lt;br&gt;&lt;/font&gt;" style="text;html=1;strokeColor=none;fillColor=none;align=center;verticalAlign=middle;whiteSpace=wrap;rounded=0;fontSize=19;" vertex="1" parent="1">
          <mxGeometry x="-23" y="263.5" width="202" height="56" as="geometry" />
        </mxCell>
        <mxCell id="WZVJP4LRijjCwG3HYN7H-21" value="&lt;font style=&quot;font-size: 14px;&quot;&gt;Table descriptor indicates the next level Table address&lt;/font&gt;" style="text;html=1;strokeColor=none;fillColor=none;align=center;verticalAlign=middle;whiteSpace=wrap;rounded=0;fontSize=19;" vertex="1" parent="1">
          <mxGeometry x="-14" y="406.5" width="184" height="50" as="geometry" />
        </mxCell>
        <mxCell id="WZVJP4LRijjCwG3HYN7H-25" value="&lt;font style=&quot;font-size: 11px;&quot;&gt;L1 entries in GPT&lt;/font&gt;" style="text;html=1;strokeColor=none;fillColor=none;align=center;verticalAlign=middle;whiteSpace=wrap;rounded=0;fontSize=19;" vertex="1" parent="1">
          <mxGeometry x="450.25" y="449" width="120.5" height="30" as="geometry" />
        </mxCell>
        <mxCell id="WZVJP4LRijjCwG3HYN7H-26" value="&lt;font style=&quot;font-size: 11px;&quot;&gt;L0 entries in GPT&lt;/font&gt;" style="text;html=1;strokeColor=none;fillColor=none;align=center;verticalAlign=middle;whiteSpace=wrap;rounded=0;fontSize=19;" vertex="1" parent="1">
          <mxGeometry x="211.25" y="449" width="120.5" height="30" as="geometry" />
        </mxCell>
        <mxCell id="WZVJP4LRijjCwG3HYN7H-27" value="&lt;font style=&quot;&quot;&gt;&lt;font style=&quot;font-size: 14px;&quot;&gt;Granules descriptor indicates a GPI value for&amp;nbsp;16 physical granules&lt;/font&gt;&lt;br&gt;&lt;/font&gt;" style="text;html=1;strokeColor=none;fillColor=none;align=center;verticalAlign=middle;whiteSpace=wrap;rounded=0;fontSize=19;" vertex="1" parent="1">
          <mxGeometry x="603" y="259.75" width="229" height="63.5" as="geometry" />
        </mxCell>
        <mxCell id="WZVJP4LRijjCwG3HYN7H-28" value="&lt;font style=&quot;font-size: 14px;&quot;&gt;&lt;span style=&quot;&quot;&gt;Contiguous&amp;nbsp;&lt;/span&gt;descriptor indicates a GPI value for a region (2M to 512M)&lt;br&gt;&lt;/font&gt;" style="text;html=1;strokeColor=none;fillColor=none;align=center;verticalAlign=middle;whiteSpace=wrap;rounded=0;fontSize=19;" vertex="1" parent="1">
          <mxGeometry x="603" y="403.75" width="242" height="55.5" as="geometry" />
        </mxCell>
      </root>
    </mxGraphModel>
  </diagram>
</mxfile>
